# xmcd
#
# Track frame offsets:
#	150
#	8894
#	27879
#	45606
#	64920
#	84266
#	101426
#	123896
#	144180
#	161130
#	191960
#	214910
#	237782
#	255934
#	275822
#	294231
#
# Disc length: 4214 seconds
#
# Revision: 0
# Processed by: cddbd v1.5.1PL0 Copyright (c) Steve Scherf et al.
# Submitted via: dBpowerAMP V4.0
#
DISCID=db107410
DTITLE=Floetry - Floetic
DYEAR=2003
DGENRE=Rhythmic Soul
TTITLE0=1_Big Ben-Floetry
TTITLE1=2_Floetic-Floetry
TTITLE2=3_Ms Stress-Floetry
TTITLE3=4_Fun-Floetry
TTITLE4=5_Sunshine-Floetry
TTITLE5=6_headache-Floetry
TTITLE6=7_Possibilities-Floetry
TTITLE7=8_Say yes-Floetry
TTITLE8=9|_Hello-Floetry
TTITLE9=10_Getting late-Floetry
TTITLE10=11_Hey you-Floetry
TTITLE11=12_If i was a bird-Floetry
TTITLE12=13_Opera-Floetry
TTITLE13=14_Mr messed up-Floetry
TTITLE14=15_Butterflies-Floetry
TTITLE15=16_Now you're gone-Floetry
EXTD=
EXTT0=
EXTT1=
EXTT2=
EXTT3=
EXTT4=
EXTT5=
EXTT6=
EXTT7=
EXTT8=
EXTT9=
EXTT10=
EXTT11=
EXTT12=
EXTT13=
EXTT14=
EXTT15=
PLAYORDER=
